<?xml version="1.0" encoding="utf-8"?>
<!-- Generator: Adobe Illustrator 23.0.4, SVG Export Plug-In . SVG Version: 6.00 Build 0)  -->
<svg version="1.1" id="Layer_1" xmlns="http://www.w3.org/2000/svg" xmlns:xlink="http://www.w3.org/1999/xlink" x="0px" y="0px"
	 viewBox="0 0 140 16.11" style="enable-background:new 0 0 140 16.11;" xml:space="preserve">
<style type="text/css">
	.st0{fill:#FFFFFF;}
</style>
<g>
	<path class="st0" d="M53.41,0.62h-0.95c-0.15,0-0.26,0.11-0.26,0.26v11.33c0,0.13-0.07,0.17-0.19,0.07L39.84,0.75
		c-0.24-0.24-0.65-0.19-0.65,0.11v14.36c0,0.15,0.07,0.26,0.22,0.26h0.98c0.15,0,0.24-0.11,0.24-0.26V3.85
		c0-0.13,0.09-0.17,0.19-0.07l12.19,11.57c0.22,0.22,0.65,0.2,0.65-0.13V0.88C53.66,0.73,53.56,0.62,53.41,0.62z"/>
	<path class="st0" d="M25.55,0.7c-0.07-0.15-0.19-0.15-0.26,0l-7.13,14.56c-0.06,0.13,0,0.22,0.13,0.22h1.13
		c0.11,0,0.26-0.06,0.32-0.19l1.34-2.73h8.63l1.32,2.73c0.06,0.13,0.19,0.19,0.32,0.19h1.11c0.13,0,0.2-0.09,0.13-0.22L25.55,0.7z
		 M25.31,3.97c0.06-0.11,0.17-0.11,0.22,0l3.49,7.19h-7.29L25.31,3.97z"/>
	<path class="st0" d="M14.82,0.62H13.7c-0.13,0-0.28,0.04-0.33,0.17l-5.5,11.35c-0.06,0.11-0.13,0.11-0.19,0L2.07,0.79
		c-0.06-0.13-0.2-0.17-0.32-0.17H0.64c-0.13,0-0.19,0.09-0.13,0.22l7.15,14.53c0.07,0.15,0.15,0.15,0.22,0l7.06-14.53
		C15,0.72,14.95,0.62,14.82,0.62z"/>
	<path class="st0" d="M139.25,0.62h-13.99c-0.13,0-0.22,0.11-0.22,0.24v14.36c0,0.15,0.07,0.26,0.22,0.26h0.98
		c0.15,0,0.24-0.11,0.24-0.26V8.98c0-0.17,0.09-0.24,0.26-0.24h5.93c0.15,0,0.26-0.11,0.26-0.26V7.57c0-0.15-0.11-0.24-0.26-0.24
		h-5.93c-0.17,0-0.26-0.09-0.26-0.26V2.29c0-0.17,0.09-0.26,0.26-0.26h12.5c0.15,0,0.26-0.13,0.26-0.28V0.88
		C139.51,0.73,139.4,0.62,139.25,0.62z"/>
	<path class="st0" d="M75.78,0.62h-1.02c-0.15,0-0.26,0.04-0.32,0.17l-5.52,11.35c-0.06,0.11-0.15,0.11-0.2,0l-5.5-11.35
		c-0.07-0.15-0.19-0.17-0.32-0.17h-1.04c-0.15,0-0.24,0.11-0.24,0.26v14.34c0,0.15,0.09,0.26,0.24,0.26h0.98
		c0.15,0,0.22-0.11,0.22-0.26V3.78l5.65,11.61c0.06,0.13,0.15,0.13,0.2,0l5.65-11.63v11.46c0,0.15,0.09,0.26,0.24,0.26h0.97
		c0.15,0,0.24-0.11,0.24-0.26V0.88C76.02,0.73,75.93,0.62,75.78,0.62z"/>
	<path class="st0" d="M111.13,0.53c-4.03,0-7.34,3.38-7.34,7.52s3.31,7.52,7.34,7.52c4.05,0,7.36-3.38,7.36-7.52
		S115.18,0.53,111.13,0.53z M111.13,14.09c-3.21,0-5.85-2.71-5.85-6.04s2.64-6.04,5.85-6.04c3.23,0,5.87,2.71,5.87,6.04
		S114.36,14.09,111.13,14.09z"/>
	<path class="st0" d="M89.93,0.53c-4.03,0-7.34,3.38-7.34,7.52s3.31,7.52,7.34,7.52c4.05,0,7.36-3.38,7.36-7.52
		S93.98,0.53,89.93,0.53z M89.93,14.09c-3.21,0-5.85-2.71-5.85-6.04s2.64-6.04,5.85-6.04c3.23,0,5.87,2.71,5.87,6.04
		S93.16,14.09,89.93,14.09z"/>
</g>
</svg>
